<svg width="1440" height="377" viewBox="0 0 1440 377" fill="none" xmlns="http://www.w3.org/2000/svg">
<g clip-path="url(#clip0_536_1910)">
<rect x="467" y="130" width="15.96" height="4" transform="rotate(-114 467 130)" fill="#9DED1A" fill-opacity="0.45"/>
<rect x="846" y="128" width="37.96" height="5" transform="rotate(33 846 128)" fill="#FC9E1C" fill-opacity="0.75"/>
<rect x="487" y="147" width="33.96" height="4" transform="rotate(-95 487 147)" fill="#DCBCFA" fill-opacity="0.65"/>
<circle cx="622.2" cy="184.2" r="4.2" fill="#FC9E1C" fill-opacity="0.85"/>
<circle cx="466.7" cy="238.7" r="3.7" fill="#FC9E1C" fill-opacity="0.75"/>
<circle cx="514.2" cy="146.2" r="8.2" fill="#4BC8EF"/>
<path d="M604.171 162.736L598.253 166.336L597.133 173.171L593.533 167.253L586.698 166.133L592.616 162.534L593.736 155.698L597.335 161.616L604.171 162.736Z" fill="#F54721" fill-opacity="0.75"/>
<path d="M557.106 111.467L549.413 111.912L544.744 118.04L544.299 110.348L538.171 105.678L545.863 105.234L550.533 99.1055L550.977 106.798L557.106 111.467Z" fill="#C9FCBE" fill-opacity="0.9"/>
<path d="M80 11.4L87.8772 0.558006L100.623 4.6993V18.1008L87.8772 22.2421L80 11.4Z" fill="#9AF5FC" fill-opacity="0.85"/>
<path d="M465.574 11.1078L475.688 2.31558L487.176 9.21786L484.161 22.2759L470.811 23.4439L465.574 11.1078Z" fill="#F54721" fill-opacity="0.85"/>
<path d="M861.609 3.7613L860.821 10.1793L866.681 12.9121L860.334 14.1459L859.546 20.5639L856.411 14.9084L850.063 16.1422L854.473 11.4131L851.338 5.75766L857.199 8.4904L861.609 3.7613Z" fill="#9DED1A" fill-opacity="0.65"/>
<path d="M1246.61 7.37529L1242.22 10.6784L1245.38 15.178L1240.32 13.0235L1238 18.0091L1237.34 12.5515L1231.86 13.0375L1236.26 9.73435L1233.1 5.23476L1238.16 7.38928L1240.47 2.40365L1241.14 7.86133L1246.61 7.37529Z" fill="#755FFE"/>
<rect x="1229.03" y="37.3909" width="28.96" height="5" transform="rotate(-6 1229.03 37.3909)" fill="#FF21FB"/>
<path d="M867.293 94.1727L850.193 84.3L867.293 74.4273L867.293 94.1727Z" fill="#03A3F5" fill-opacity="0.6"/>
<path d="M1229.18 77.1259L1233.5 69.9257L1241.9 70.0723L1245.97 77.4191L1241.65 84.6193L1233.25 84.4727L1229.18 77.1259Z" fill="#4BC8EF" fill-opacity="0.75"/>
<path d="M95.3597 116.255L85.8517 118.45L83.6566 108.942L93.1646 106.747L95.3597 116.255Z" fill="#F54721" fill-opacity="0.75"/>
<circle cx="1235.73" cy="109.791" r="6.7" fill="#FFED36"/>
<rect x="100.038" y="140.127" width="20.96" height="3" transform="rotate(153 100.038 140.127)" fill="#FC9E1C" fill-opacity="0.6"/>
<rect x="1249.74" y="140.473" width="23.96" height="4" transform="rotate(139 1249.74 140.473)" fill="#FF21FB"/>
<path d="M83.62 179.949L98.9508 178.337L92.6808 192.42L83.62 179.949Z" fill="#9DED1A" fill-opacity="0.65"/>
<path d="M466.369 212.775L472.575 208.745L479.169 212.104L479.556 219.494L473.35 223.525L466.757 220.165L466.369 212.775Z" fill="#480CA7" fill-opacity="0.35"/>
<path d="M1240.62 211.837L1246.62 218.516L1253.49 212.737L1250.71 221.271L1259.15 224.331L1250.36 226.187L1251.93 235.026L1245.94 228.347L1239.07 234.126L1241.85 225.591L1233.41 222.531L1242.19 220.676L1240.62 211.837Z" fill="#480CA7" fill-opacity="0.35"/>
<rect x="463.01" y="288.323" width="47.96" height="3" transform="rotate(-85 463.01 288.323)" fill="#BA3E03" fill-opacity="0.85"/>
<path d="M851.017 250.792L859.219 251.944L862.85 244.5L864.289 252.657L872.491 253.809L865.177 257.698L866.616 265.855L860.658 260.101L853.345 263.989L856.975 256.545L851.017 250.792Z" fill="#03A3F5" fill-opacity="0.85"/>
<path d="M1232.09 249.433L1244.04 243.606L1249.87 255.554L1237.92 261.382L1232.09 249.433Z" fill="#4BC8EF" fill-opacity="0.6"/>
<path d="M98.5516 279.168L98.1529 287.642L104.326 293.461L95.8522 293.062L90.0336 299.235L90.4323 290.761L84.2591 284.943L92.733 285.341L98.5516 279.168Z" fill="#F54721" fill-opacity="0.9"/>
<circle cx="466.21" cy="278.109" r="3.2" fill="#4BC8EF" fill-opacity="0.45"/>
<path d="M1233.87 282.967L1250.15 283.251L1241.76 297.206L1233.87 282.967Z" fill="#480CA7" fill-opacity="0.85"/>
<circle cx="468.21" cy="314.473" r="5.2" fill="#FFED36" fill-opacity="0.45"/>
<rect x="846.02" y="325.174" width="18.96" height="3" transform="rotate(-57 846.02 325.174)" fill="#9AF5FC" fill-opacity="0.9"/>
<circle cx="852.22" cy="349.836" r="6.2" fill="#FC9E1C" fill-opacity="0.35"/>
</g>
<defs>
<clipPath id="clip0_536_1910">
<rect width="1440" height="377" fill="white"/>
</clipPath>
</defs>
</svg>
