<svg width="260" height="33" viewBox="0 0 260 33" fill="none" xmlns="http://www.w3.org/2000/svg">
<path d="M41.3037 8.76573C41.3037 15.7781 40.967 17.5312 39.6201 17.5312C38.2732 17.5312 38.1609 16.6031 38.7221 12.8907L39.3956 8.25011H28.6203C22.6715 8.25011 17.5083 7.83762 17.1716 7.21888C16.0492 5.67203 11.335 5.9814 10.5493 7.7345C8.97789 11.6532 10.6615 12.1688 23.4572 11.5501L35.6916 11.0345V14.3344C35.6916 17.1187 35.2426 17.5312 32.7733 17.5312C30.4162 17.5312 30.0795 17.1187 30.6407 15.4688C31.3141 13.5094 30.8652 13.4063 19.5287 13.4063C12.2329 13.4063 6.73304 12.8907 5.49837 12.1688C1.3454 9.79697 -2.13412 14.7469 1.56988 17.6344C2.91679 18.6656 3.81473 18.6656 5.49837 17.7375C6.73304 17.0156 11.8962 16.5 17.7328 16.5C27.7224 16.5 27.8346 16.5 27.8346 19.0781C27.8346 21.3468 27.3857 21.6562 23.9061 21.6562C21.7735 21.6562 18.9675 21.0374 17.6206 20.3156C15.7124 19.2843 15.1512 19.3875 13.8043 21.0374C12.6819 22.378 12.5696 23.5124 13.3553 24.853C14.4778 26.9155 18.294 27.5342 19.4164 25.7811C19.7532 25.1624 22.6715 24.7499 25.8143 24.7499C30.8652 24.7499 31.4264 24.5436 30.8652 22.6874C30.304 20.8312 30.8652 20.6249 35.8038 20.6249H41.3037V26.8124C41.3037 32.9998 41.3037 32.9998 44.671 32.9998C47.1403 32.9998 47.8138 32.5873 47.3648 31.4529C46.9158 30.6279 46.2424 29.9061 45.6812 29.9061C45.12 29.9061 44.671 23.8218 44.671 16.5C44.671 9.0751 45.12 3.09394 45.6812 3.09394C46.2424 3.09394 46.9158 2.37207 47.3648 1.54708C47.8138 0.412724 47.1403 0.000228882 44.671 0.000228882H41.3037V8.76573Z" fill="#02353C"/>
<path d="M213.035 1.54708C213.035 2.37207 213.821 3.09394 214.719 3.09394C216.178 3.09394 216.402 5.25953 216.402 16.5C216.402 27.7405 216.178 29.9061 214.719 29.9061C213.821 29.9061 213.035 30.6279 213.035 31.4529C213.035 32.4842 214.158 32.9998 216.402 32.9998C219.77 32.9998 219.77 32.9998 219.77 26.8124V20.6249H224.821C229.086 20.6249 229.872 20.9343 229.872 22.6874C229.872 24.4405 230.657 24.7499 234.922 24.7499C237.729 24.7499 240.984 25.2655 242.106 25.9874C246.596 28.4623 250.075 23.6155 246.034 20.5218C244.688 19.4906 243.79 19.4906 242.106 20.4187C240.984 21.1406 238.514 21.6562 236.606 21.6562C233.8 21.6562 233.239 21.2437 233.239 19.0781C233.239 16.5 233.351 16.5 242.779 16.5C248.055 16.5 253.33 17.0156 254.453 17.7375C257.595 19.4906 260.402 18.0469 259.953 14.7469C259.728 12.2719 259.167 11.9626 256.81 12.2719C255.238 12.4782 248.616 12.7876 241.994 13.0969C230.882 13.5094 229.872 13.7157 229.872 15.5719C229.872 16.8094 229.086 17.5312 227.627 17.5312C225.831 17.5312 225.382 16.8094 225.382 14.3344V11.1376L237.504 11.4469C249.29 11.8594 249.514 11.8594 249.851 9.4876C250.3 6.70326 247.269 5.36266 244.351 7.01263C243.116 7.7345 237.841 8.25011 232.116 8.25011H222.015V12.8907C222.015 15.4688 221.566 17.5312 220.892 17.5312C220.219 17.5312 219.77 13.9219 219.77 8.76573V0.000228882H216.402C214.158 0.000228882 213.035 0.515846 213.035 1.54708Z" fill="#02353C"/>
<path d="M196.873 8.76565C194.628 13.2 192.832 16.9124 192.832 17.1187C192.832 17.3249 194.291 17.5311 196.087 17.5311C198.107 17.5311 199.679 16.8093 200.128 15.6749C200.801 14.2312 201.138 14.4374 202.372 17.0155C203.832 20.0061 203.719 20.1092 200.913 20.728C198.893 21.1405 200.24 21.4498 204.842 21.553L211.801 21.6561L206.638 11.55C203.832 6.08443 201.362 1.34075 201.138 1.23763C201.025 1.03138 199.005 4.43446 196.873 8.76565Z" fill="#02353C"/>
<path d="M105.283 3.71286C105.283 4.7441 108.875 8.66279 113.14 12.3752C117.517 16.0877 120.997 19.8001 120.997 20.8314C120.997 21.7595 123.017 24.0282 125.487 25.7813L129.976 29.0813V16.1908V3.30037L126.497 4.43473C123.13 5.67221 123.017 5.77533 123.466 11.0346C123.803 14.0252 123.691 16.5002 123.242 16.5002C122.905 16.5002 121.109 15.0565 119.201 13.3034C117.405 11.5503 113.589 8.2503 110.671 5.98158C106.405 2.68163 105.283 2.26913 105.283 3.71286Z" fill="#02353C"/>
<path d="M58.7028 4.5369C54.6621 6.18687 51.9682 8.76497 50.3968 12.6837C49.3867 14.9524 49.4989 15.468 50.8458 15.468C51.7438 15.468 52.5295 16.293 52.5295 17.3242C52.5295 20.1086 55.8967 24.1304 57.2436 22.8929C57.9171 22.2742 57.9171 21.1398 57.1314 19.7992C55.2233 16.4992 55.6722 14.0243 58.4783 11.5493C61.2844 9.07434 65.8863 8.55872 68.0189 10.5181C69.0291 11.4462 69.8148 11.2399 71.6107 9.7962C74.7535 7.21811 74.529 6.59937 69.3658 4.74314C63.9782 2.7838 63.0802 2.7838 58.7028 4.5369Z" fill="#02353C"/>
<path d="M74.9768 5.1563C75.7625 6.39378 77.3339 7.21877 79.242 7.21877C81.5991 7.21877 83.1705 8.45625 86.65 12.8906C89.1193 15.9843 91.4764 18.5624 91.9254 18.5624C92.5988 18.5624 100.905 8.35313 103.486 4.33131C104.048 3.50632 103.262 3.09383 100.456 3.09383C96.9763 3.09383 96.0784 3.71257 92.9356 8.25C90.9152 11.0343 89.2316 13.4062 89.0071 13.4062C88.7826 13.4062 87.099 11.0343 85.0786 8.25C81.9358 3.71257 81.0379 3.09383 77.6706 3.09383C74.0788 3.09383 73.8543 3.30007 74.9768 5.1563Z" fill="#02353C"/>
<path d="M141.199 4.94917C136.372 7.11476 131.883 14.024 134.352 15.3646C135.25 15.8803 136.485 17.8396 137.158 19.799C138.842 24.5426 140.638 23.202 140.638 17.1177C140.638 12.5803 140.974 11.7553 143.668 10.4147C146.137 9.07411 147.372 9.07411 150.066 10.0022C152.872 10.9303 153.658 10.8272 155.117 9.38348C157.698 6.80539 157.362 6.28977 152.984 4.53667C147.933 2.68045 146.025 2.68045 141.199 4.94917Z" fill="#02353C"/>
<path d="M160.281 15.9855C160.281 23.101 160.506 28.8759 160.73 28.8759C161.067 28.8759 162.638 28.3603 164.21 27.8447C166.791 26.9166 167.24 26.2978 166.791 23.7197C166.342 20.9354 166.567 20.626 169.373 20.626C171.73 20.626 173.077 21.6573 175.659 25.2666L178.801 29.9071H185.873C189.913 29.9071 192.832 29.4946 192.832 28.8759C192.832 28.154 196.087 27.8447 201.699 28.0509C211.239 28.3603 212.362 28.0509 211.239 25.3697C210.678 24.0291 208.995 23.7197 202.821 23.7197C195.301 23.7197 195.077 23.6166 196.199 21.6573C197.321 19.801 197.097 19.5948 193.954 19.5948C190.924 19.5948 190.138 20.2135 188.23 24.3385L185.985 28.979L181.72 23.5135C177.903 18.3573 177.23 18.0479 172.067 17.5323C167.577 17.1198 166.455 16.6042 166.567 15.1605C166.679 14.2324 166.118 13.4074 165.22 13.4074C164.098 13.4074 163.649 11.9636 163.649 8.25119C163.649 4.33249 163.2 3.09501 161.965 3.09501C160.506 3.09501 160.281 5.2606 160.281 15.9855Z" fill="#02353C"/>
<path d="M164.77 7.73414C164.77 10.3122 165.331 12.3747 165.893 12.3747C166.566 12.3747 167.015 11.6528 167.015 10.7247C167.015 9.48724 168.025 9.281 171.842 9.48724C175.658 9.69349 176.556 10.2091 176.556 11.8591C176.556 13.5091 175.546 14.0247 172.066 14.5403L167.576 15.159L172.739 15.3653C176.668 15.4684 178.239 15.984 178.801 17.2215C179.474 18.8715 179.699 18.8715 181.719 16.6028C184.749 13.1997 184.413 9.59037 180.596 6.08417C177.678 3.50608 176.443 3.09358 171.056 3.09358H164.77V7.73414Z" fill="#02353C"/>
<path d="M78.3446 8.7657C78.3446 9.07507 80.1405 11.8594 82.3853 14.85C85.7526 19.4906 86.3138 21.2437 85.9771 24.9561C85.6404 29.081 85.8649 29.3904 88.7832 29.6998C91.7015 30.0092 91.8137 29.8029 91.8137 25.4717C91.8137 22.6874 91.1403 20.4187 90.2423 19.5937C89.3444 18.9749 86.9873 16.0875 85.0792 13.3031C83.0588 10.5188 80.814 8.25008 79.916 8.25008C79.0181 8.25008 78.3446 8.45633 78.3446 8.7657Z" fill="#02353C"/>
<path d="M106.068 19.2837C106.18 29.2867 106.18 29.3898 109.098 29.6992C112.017 30.0086 112.017 30.0086 112.017 22.6868V15.2619L115.496 18.0462C117.404 19.49 119.312 20.4181 119.649 20.1087C119.986 19.7993 119.986 19.49 119.761 19.2837C119.537 19.0775 116.506 16.8088 113.027 14.1275C109.547 11.4463 106.517 9.28074 106.292 9.28074C106.068 9.28074 105.955 13.8182 106.068 19.2837Z" fill="#02353C"/>
<path d="M49.9459 17.1189C48.9358 18.7689 52.6398 24.8532 56.1193 27.1219C59.8233 29.7 67.1191 29.8031 71.1598 27.3281C74.0781 25.575 74.0781 25.575 71.8332 23.5126C70.0374 21.7595 69.2517 21.6563 67.1191 22.6876C65.7721 23.3063 63.415 23.6157 61.8437 23.2032C60.2723 22.8938 58.3641 23.1001 57.4662 23.8219C55.3336 25.4719 52.752 23.4094 51.6296 19.2845C51.0684 17.5314 50.3949 16.5002 49.9459 17.1189Z" fill="#02353C"/>
<path d="M133.341 17.8407C133.341 20.625 136.26 25.2656 139.178 27.0187C143.668 29.6999 147.596 30.0093 152.423 28.2562C157.586 26.3999 157.81 25.7812 154.667 23.2031C152.871 21.6563 152.198 21.6563 150.739 22.6875C149.729 23.4094 147.708 23.7187 145.688 23.4094C143.892 22.9969 142.096 23.2031 141.759 23.7187C140.3 25.8843 137.943 24.5437 135.811 20.3157C134.464 17.9438 133.454 16.8095 133.341 17.8407Z" fill="#02353C"/>
</svg>
